<?xml version="1.0" encoding="UTF-8"?>
<svg width="512px" height="512px" viewBox="0 0 512 512" version="1.1" xmlns="http://www.w3.org/2000/svg" xmlns:xlink="http://www.w3.org/1999/xlink">
    <!-- Generator: Sketch 62 (91390) - https://sketch.com -->
    <title>icon</title>
    <desc>Created with Sketch.</desc>
    <g id="icon" stroke="none" stroke-width="1" fill="none" fill-rule="evenodd">
        <g id="question" fill-rule="nonzero">
            <path d="M487.398438,508.523438 L395.167969,431.664062 L215.832031,431.664062 C167.695312,431.664062 128.53125,392.503906 128.53125,344.367188 L128.53125,215.832031 C128.53125,167.539062 167.617188,128.53125 215.832031,128.53125 L424.699219,128.53125 C472.996094,128.53125 512,167.617188 512,215.832031 L512,497 C512,505.308594 505.25,512 497.003906,512 C493.558594,512 490.144531,510.8125 487.398438,508.523438 Z" id="Path" fill="#3AB4FB"></path>
            <path d="M416.667969,329.367188 L223.867188,329.367188 C215.582031,329.367188 208.867188,336.082031 208.867188,344.367188 C208.867188,352.652344 215.582031,359.367188 223.867188,359.367188 L416.667969,359.367188 C424.949219,359.367188 431.667969,352.652344 431.667969,344.367188 C431.667969,336.082031 424.949219,329.367188 416.667969,329.367188 Z" id="Path" fill="#0084FF"></path>
            <g id="Group" transform="translate(208.000000, 200.000000)" fill="#0084FF">
                <path d="M208.667969,65.101562 L15.867188,65.101562 C7.582031,65.101562 0.867188,71.816406 0.867188,80.101562 C0.867188,88.382812 7.582031,95.101562 15.867188,95.101562 L208.667969,95.101562 C216.949219,95.101562 223.667969,88.382812 223.667969,80.101562 C223.667969,71.816406 216.949219,65.101562 208.667969,65.101562 Z" id="Path"></path>
                <path d="M208.667969,0.832031 L15.867188,0.832031 C7.582031,0.832031 0.867188,7.550781 0.867188,15.832031 C0.867188,24.117188 7.582031,30.832031 15.867188,30.832031 L208.667969,30.832031 C216.949219,30.832031 223.667969,24.117188 223.667969,15.832031 C223.667969,7.550781 216.949219,0.832031 208.667969,0.832031 Z" id="Path"></path>
            </g>
            <path d="M14.996094,383.46875 C6.75,383.46875 0,376.773438 0,368.46875 L0,87.300781 C0,39.085938 39.003906,-2.84217094e-14 87.300781,-2.84217094e-14 L296.167969,-2.84217094e-14 C344.382812,-2.84217094e-14 383.46875,39.003906 383.46875,87.300781 L383.46875,215.835938 C383.46875,263.972656 344.304688,303.132812 296.167969,303.132812 L116.832031,303.132812 L24.601562,379.988281 C21.855469,382.28125 18.441406,383.46875 14.996094,383.46875 Z" id="Path" fill="#E7EBEF"></path>
            <path d="M166.566406,119.417969 C166.566406,112.699219 169.183594,106.386719 173.933594,101.632812 C178.683594,96.882812 185,94.265625 191.734375,94.265625 C205.609375,94.265625 216.902344,105.558594 216.902344,119.433594 C216.902344,133.3125 205.609375,144.601562 191.734375,144.601562 C183.449219,144.601562 176.734375,151.316406 176.734375,159.601562 L176.734375,175.664062 C176.734375,183.949219 183.449219,190.664062 191.734375,190.664062 C200.015625,190.664062 206.734375,183.949219 206.734375,175.664062 L206.734375,172.527344 C229.886719,165.976562 246.898438,144.65625 246.898438,119.433594 C246.898438,89.011719 222.152344,64.265625 191.71875,64.265625 C176.988281,64.265625 163.136719,70.003906 152.71875,80.417969 C142.304688,90.835938 136.566406,104.6875 136.566406,119.414062 L136.566406,119.429688 C136.566406,127.714844 143.28125,134.421875 151.566406,134.421875 C159.851562,134.421875 166.566406,127.699219 166.566406,119.417969 Z" id="Path" fill="#EB5964"></path>
            <path d="M206.734375,223.867188 C206.734375,232.152344 200.015625,238.867188 191.734375,238.867188 C183.449219,238.867188 176.734375,232.152344 176.734375,223.867188 C176.734375,215.582031 183.449219,208.867188 191.734375,208.867188 C200.015625,208.867188 206.734375,215.582031 206.734375,223.867188 Z" id="Path" fill="#EB5964"></path>
        </g>
    </g>
</svg>